<?xml version="1.0" encoding="utf-8"?>
<!-- Generator: Adobe Illustrator 23.0.3, SVG Export Plug-In . SVG Version: 6.00 Build 0)  -->
<svg version="1.1" id="Layer_1" xmlns="http://www.w3.org/2000/svg" xmlns:xlink="http://www.w3.org/1999/xlink" x="0px" y="0px"
	 viewBox="0 0 1200 1200" enable-background="new 0 0 1200 1200" xml:space="preserve">
<g>
	<path fill="#F4A2D4" d="M584.468,537.3c-4.504,0.525-9.609,1.409-12.044,5.234c-1.802,2.831-1.563,6.452-1.261,9.794
		c15.923,176.109,31.847,352.217,47.77,528.326c16.893-1.029,33.578-5.372,48.83-12.708c8.389-4.036-5.314-140.449-5.727-155.875
		c-1.461-54.574-2.354-109.164-2.674-163.757c-0.313-53.293-0.088-106.59,0.69-159.878
		C661.017,522.464,644.668,530.287,584.468,537.3z"/>
	<path fill="#F4A2D4" d="M368.954,302.933c-8.751-14.54-15.051-31.452-12.782-48.27c2.27-16.818,15.086-32.975,31.962-34.761
		c13.051-1.38,25.819,5.864,34.413,15.782c8.594,9.918,13.764,22.27,18.794,34.392c18.548,44.703,40.881,89.705,58.354,133.85
		C457.393,406.805,388.896,336.067,368.954,302.933z"/>
	<path fill="#F4A2D4" d="M538.822,140.517c-4.507-7.968-9.448-16.068-16.975-21.277c-16.835-11.649-39.693-5.117-58.96,1.803
		c-7.493,2.691-14.985,5.382-22.478,8.073c-20.734,7.447-41.988,15.192-58.629,29.628c20.393,21.656,51.895,28.184,76.983,44.167
		c18.488,11.778,33.187,28.512,47.619,45.012c11.176,12.778,22.364,25.57,32.553,39.148c26.911,34.762,46.949,76.871,57.213,119.578
		C616.938,317.607,583.668,219.789,538.822,140.517z"/>
	<path fill="#F4A2D4" d="M677.488,283.599c11.07-28.554,25.073-55.951,41.417-81.85c21.482-34.042,47.027-65.518,75.92-93.546
		c5.963,16.805,9.628,34.423,10.862,52.212c10.864-2.827,23.209,1.248,30.257,9.985c7.048,8.737,8.417,21.666,3.355,31.685
		c8.75,5.408,17.5,10.817,26.25,16.225c-10.877,6.804-24.602,6.084-37.348,7.547c-34.35,3.942-64.708,25.155-87.603,51.065
		c-16.778,18.987-43.363,87.045-66.05,93.819C632.439,383.313,671.291,299.583,677.488,283.599z"/>
	<path fill="#F4A2D4" d="M726.909,443.348c7.604,1.36,14.867-3.232,21.23-7.612c26.548-18.275,53.096-36.549,79.646-54.825
		c20.634-14.204,51.641-35.908,51.36-64.523c-0.274-27.987-21.328-41.186-43.773-27.56c-19.599,11.897-35.893,56.618-48.529,75.051
		C779.5,374.591,736.669,445.094,726.909,443.348z"/>
	<path fill="#F4A2D4" d="M381.159,560.126c22.508-5.99,45.322-10.831,68.323-14.498c-6.523,19.423-8.512,40.353-5.765,60.657
		c-4.287-31.683,96.117-70.225,55.47-97.732C468.406,487.723,401.532,540.274,381.159,560.126z"/>
	<path fill="#F4A2D4" d="M917.096,463.317c-27.089,1.267-53.882,8.53-77.903,21.117c3.134,14.601,5.135,29.446,5.981,44.356
		c-1.169-20.616-135.328-14.806-89.158-63.351C787.64,432.187,880.021,451.674,917.096,463.317z"/>
	<path fill="#C4186A" d="M830.459,1101.269c-19.787,2.144-39.54,4.696-59.369,6.33c-24.916,2.053-49.928,2.984-74.821,5.246
		c-6.143,0.558-11.934,4.553-17.998,6.644c-2.553,0.88-5.699,1.906-8.061,1.184c-20.995-6.413-41.125-1.386-61.269,4.045
		c-1.588,0.428-3.281,1.51-4.734,1.244c-33.111-6.039-64.586,5.305-96.729,9.178c-36.597,4.409-73.07,9.842-109.613,14.714
		c-12.852,1.714-32.653-12.007-36.086-24.734c-6.935-25.717-14.985-51.197-20.527-77.21c-8.361-39.244-15.242-78.814-22.241-118.336
		c-6.338-35.794-10.835-71.953-18.337-107.489c-5.318-25.195-14.448-49.573-21.537-74.412c-2.433-8.525-3.519-17.436-5.983-25.95
		c-0.479-1.654-5.725-3.887-6.686-3.146c-12.286,9.467-23.54,0.743-35.091-1.563c-1.032-0.206-2.256-1.47-2.656-2.522
		c-8.014-21.104-17.629-41.799-23.347-63.517c-5.33-20.242-6.212-41.627-9.57-62.426c-3.027-18.745-7.777-37.266-9.815-56.098
		c-1.341-12.39,0.369-25.2,1.695-37.717c0.273-2.579,4.59-6.105,7.582-6.769c9.493-2.107,19.234-4.219,28.891-4.277
		c49.406-0.296,98.818,0.414,148.221-0.023c17.294-0.153,34.571-3.778,51.849-3.721c41.608,0.136,81.76-19.012,124.036-9.061
		c1.331,0.314,2.947-0.583,4.431-0.915c-1.16-1.051-2.152-2.448-3.504-3.101c-32.38-15.651-65.251-30.37-97.009-47.19
		c-14.584-7.724-28.071-18.397-40.185-29.732c-30.545-28.58-60.99-57.399-89.485-87.977c-12.156-13.045-18.856-31.043-28.945-46.184
		c-9.271-13.914-6.988-27.601-0.382-40.88c16.832-33.832,34.853-66.378,67.21-89.268c19.208-13.588,33.674-33.914,52.965-47.34
		c16.64-11.581,36.748-18.575,55.96-25.936c15.622-5.986,30.357-0.139,39.853,12.449c19.069,25.276,36.961,51.489,54.387,77.943
		c28.412,43.13,42.802,92.163,56.571,141.187c4.541,16.166,5.284,33.393,7.876,50.118c0.289,1.867,1.316,3.62,2.001,5.426
		c0.873-1.702,1.96-3.328,2.586-5.116c8.653-24.715,14.651-50.796,26.574-73.809c12.076-23.308,15.811-49.595,31.392-71.731
		c22.322-31.714,40.847-66.077,61.855-98.755c6.057-9.421,14.888-17.119,22.783-25.282c9.364-9.681,19.787-5.56,29.341-0.712
		c20.394,10.346,36.463,24.985,48.406,45.196c12.885,21.804,29.406,41.435,42.762,62.992
		c25.096,40.509,46.474,82.997,56.606,129.937c3.983,18.455-2.175,35.133-18.1,47.17c-20.277,15.326-39.684,31.914-60.735,46.071
		c-18.911,12.719-39.556,22.856-59.373,34.241c-1.566,0.899-2.643,2.649-3.946,4.004c1.623,0.168,3.271,0.612,4.864,0.464
		c33.443-3.103,65.697,4.205,98.155,10.526c10.656,2.075,21.883,1.067,32.804,1.999c4.454,0.38,9.121,1.521,13.057,3.547
		c2.61,1.343,6.109,5.391,5.617,7.303c-0.766,2.977-4.151,6.474-7.181,7.485c-23.228,7.744-46.756,14.597-69.928,22.498
		c-7.715,2.631-14.661,7.513-21.959,11.366c8.419,1.319,16.801,3.426,25.263,3.821c35.43,1.653,70.915,2.28,106.314,4.389
		c12.936,0.771,17.505,10.238,16.724,23.627c-1.083,18.556-2.47,37.428-0.322,55.765c3.905,33.33-5.386,64.808-10.778,96.812
		c-0.646,3.831-8.956,8.496-14.106,9.037c-14.294,1.503-28.799,1.374-43.213,1.217c-8.919-0.097-11.593,4.226-12.295,12.323
		c-4.246,48.962-8.229,97.958-13.478,146.817c-3.124,29.075-8.733,57.874-12.595,86.881c-2.402,18.045-3.166,36.307-5.495,54.364
		c-2.912,22.587-6.888,45.035-9.916,67.609c-0.716,5.34,0.484,10.943,0.865,16.421c1.074,15.417-3.122,20.79-18.778,22.329
		c-14.334,1.41-28.743,2.057-43.119,3.04C830.593,1102.644,830.526,1101.956,830.459,1101.269z M902.495,345.977
		c17.198-9.465,33.184-20.203,31.705-42.976c-0.508-7.822-3.588-15.572-6.103-23.153c-13.797-41.579-31.788-81.069-57.726-116.704
		c-12.179-16.733-24.172-33.67-35.06-51.252c-8.681-14.019-18.335-26.634-33.466-33.71c-3.298-1.542-9.905-1.509-11.947,0.66
		c-12.439,13.213-25.668,26.173-35.454,41.276c-14.01,21.622-23.266,46.46-38.176,67.335
		c-27.639,38.696-42.832,83.234-57.864,126.779c-12.476,36.142-12.79,76.489-18.366,114.991c-0.327,2.259,0.467,4.68,0.739,7.025
		c1.255-2.029,2.854-3.923,3.711-6.109c9.374-23.907,21.737-45.531,41.171-63.199c15.196-13.815,30.63-28.249,42.143-45.026
		c16.22-23.636,35.414-41.364,61.039-55.019c23.801-12.682,46.98-23.582,74.075-21.604c9.858,0.719,24.273,2.956,28.087,9.481
		c8.465,14.481,13.884,31.804,16.084,48.554c1.811,13.789-2.8,28.421-4.565,42.679c-2.645-2.342-7.315-4.471-7.587-7.062
		c-1.222-11.656-2.183-23.507-1.427-35.17c1.961-30.255-15.272-47.158-44.523-42.618c-1.257,0.195-2.836-0.034-3.717,0.646
		c-4.286,3.307-9.643,6.085-12.32,10.459c-9.032,14.758-15.925,30.92-25.751,45.078c-23.612,34.02-55.94,61.289-76.028,98.257
		c-6.173,11.36-15.536,20.986-23.421,31.418c-0.963,1.275-1.824,2.627-2.732,3.944c1.885,0.31,4.002,1.341,5.62,0.82
		c21.264-6.851,43.016-12.609,63.499-21.333c17.797-7.58,33.986-18.869,51.214-27.891c5.198-2.722,12.659-1.827,17.072-5.212
		c14.597-11.201,28.31-23.56,42.292-35.557C890.728,356.621,896.571,351.253,902.495,345.977z M567.728,736.904
		c0.161-0.031,0.322-0.062,0.482-0.093c0-13.968-0.042-27.935,0.018-41.903c0.033-7.612-3.427-10.122-11.111-9.78
		c-35.855,1.595-71.816,1.563-107.582,4.232c-48.124,3.591-96.152,8.692-144.118,14.061c-16.995,1.902-16.947,3.152-12.566,20.271
		c11.875,46.41,25.322,92.479,35.377,139.279c12.23,56.925,20.942,114.597,32.539,171.669c5.977,29.416,14.653,58.304,22.905,87.203
		c0.812,2.844,7.46,6.158,10.988,5.744c22.87-2.683,45.592-6.6,68.427-9.619c37.767-4.992,75.58-9.643,113.382-14.374
		c16.383-2.051,19.753-6.482,17.149-22.562c-2.231-13.772-5.23-27.504-6.241-41.374c-3.94-54.022-7.26-108.089-10.741-162.143
		C573.617,830.647,570.693,783.774,567.728,736.904z M683.868,1044.775c0.032,0,0.064,0,0.097,0c0,11.877-0.79,23.837,0.45,35.583
		c0.405,3.831,5.913,9.911,9.402,10.139c13.865,0.907,27.898,0.5,41.791-0.504c32.02-2.315,63.981-5.446,95.995-7.855
		c10.952-0.824,22.022-0.037,32.98-0.811c9.227-0.652,13.954-4.605,9.766-15.186c-1.87-4.724-1.394-10.803-0.629-16.07
		c3.142-21.622,7.177-43.117,10.195-64.754c5.204-37.32,10.201-74.676,14.676-112.09c2.309-19.301,3.03-38.787,4.956-58.141
		c3.638-36.557,7.385-73.108,11.649-109.596c1.033-8.84-2.616-11.529-10.256-11.761c-14.835-0.449-29.668-0.966-44.505-1.316
		c-33.428-0.791-66.862-1.355-100.285-2.292c-20.31-0.57-40.607-1.651-60.908-2.53c-8.993-0.389-12.802,3.468-12.93,12.849
		c-0.485,35.575-2.151,71.14-2.321,106.713C683.613,886.358,683.87,965.567,683.868,1044.775z M610.936,343.533
		c0.253-0.019,0.507-0.038,0.761-0.058c0-4.663,0.753-9.47-0.115-13.965c-9.641-49.983-23.708-98.645-45.787-144.644
		c-7.321-15.251-15.779-30.089-25.057-44.237c-15.474-23.597-31.82-46.634-48.241-69.59c-5.561-7.773-14.194-9.84-22.805-5.96
		c-13.082,5.894-26.986,11.156-38.183,19.756c-15.703,12.06-28.135,28.409-43.944,40.292
		c-29.452,22.139-51.703,49.016-68.154,82.152c-10.333,20.813-12.916,38.649,0.971,58.054c7.132,9.965,12.349,21.3,19.468,31.276
		c21.917,30.716,51.693,53.634,79.393,78.578c26.97,24.286,56.561,44.311,90.349,58.365c24.516,10.197,48.087,22.661,72.121,34.027
		c1.357,0.642,3.089,0.489,4.646,0.706c-0.553-1.817-0.563-4.171-1.745-5.365c-9.527-9.628-20.095-18.345-28.802-28.645
		c-26.762-31.659-54.976-62.18-74.989-99.098c-16.513-30.46-39.696-57.895-40.409-95.057c-0.036-1.868-1.33-4.406-2.849-5.442
		c-12.198-8.317-23.592-19.353-37.128-23.857c-30.319-10.089-54.564,8.011-46.39,41.92c2.484,10.308,5.864,20.406,8.159,30.75
		c0.794,3.582-0.458,7.618-0.776,11.446c-3.477-1.944-8.885-3.073-10.105-5.968c-6.197-14.704-13.631-29.469-16.272-44.956
		c-4.316-25.308,11.797-46.276,37.561-49.046c12.935-1.391,27.177,1.124,39.648,5.352c26.89,9.116,45.87,30.167,65.543,49.301
		c26.349,25.628,54.857,50.1,76.09,79.633c22.511,31.311,37.531,67.998,56.002,102.24c1.662,3.081,4.639,5.453,7.006,8.155
		c0.626-3.458,2.038-6.981,1.754-10.362C616.259,400.687,613.551,372.114,610.936,343.533z M480.896,668.305
		c0.115,1.273,0.229,2.545,0.344,3.818c25.581-2.683,51.151-5.471,76.748-7.987c8.224-0.809,9.288-5.775,8.589-12.5
		c-2.692-25.892-5.42-51.781-7.859-77.697c-1.089-11.578-1.739-23.21-2.19-34.833c-0.407-10.486-4.649-13.87-12.866-6.388
		c-20.302,18.488-40.956,36.72-59.82,56.617c-15.692,16.55-28.901,35.438-43.568,52.992c-2.344,2.805-7.344,6.279-9.719,5.448
		c-3.074-1.075-5.292-5.932-6.834-9.6c-1.075-2.556-0.756-5.888-0.441-8.807c1.717-15.947,3.721-31.862,5.405-47.812
		c0.463-4.38,0.164-8.841,0.215-13.265c-3.783,1.586-7.62,3.055-11.337,4.782c-6.916,3.212-13.875,6.362-20.618,9.915
		c-16.389,8.637-32.55,17.714-49.063,26.101c-4.163,2.114-9.304,2.302-13.996,3.375c-0.43-5.758-3.365-13.184-0.841-16.977
		c9.339-14.032,19.471-27.843,31.178-39.92c17.886-18.451,37.366-35.351,56.037-53.051c1.548-1.468,2.084-4.003,3.09-6.042
		c-2.059-0.242-4.138-0.802-6.175-0.674c-14.287,0.899-28.802,4.091-42.803,2.547c-50.555-5.573-100.492,4.219-150.765,4.401
		c-5.062,0.018-10.418,0.181-15.078,1.845c-3.273,1.169-7.939,4.992-7.951,7.647c-0.062,14.312-0.213,28.858,2.166,42.9
		c5.928,35.004,13.115,69.798,20.007,104.635c1.557,7.869,3.164,15.898,6.175,23.271c4.757,11.647,11.7,13.749,23.132,9.177
		c5.461-2.184,11.212-4.196,17.002-4.91c32.238-3.975,64.467-8.215,96.815-11.048C404.154,672.912,442.55,670.898,480.896,668.305z
		 M688.576,583.735c0.106,0,0.212,0,0.318,0c-0.001,22.473,0.339,44.954-0.17,67.416c-0.203,8.959,3.039,13.4,11.819,14.462
		c25.561,3.092,51.061,8.652,76.658,9.106c66.851,1.187,133.741,0.035,200.614,0.218c7.443,0.021,10.845-1.734,11.584-9.411
		c2.224-23.084,5.889-46.071,7.143-69.195c1.072-19.774-1.073-39.708-0.457-59.529c0.277-8.905-2.336-12.887-10.841-13.033
		c-33.839-0.58-67.684-1.553-101.518-1.301c-11.616,0.086-17.389,11.305-11.035,21.282c7.678,12.056,17.703,22.592,25.966,34.313
		c2.732,3.874,3.147,9.381,4.622,14.141c-4.631-0.611-10.371,0.318-13.71-2.087c-19.552-14.077-37.981-29.768-57.94-43.203
		c-11.229-7.558-24.342-12.753-37.201-17.343c-15.456-5.517-31.499-9.431-47.374-13.718c-14.669-3.96-29.398-7.738-44.207-11.135
		c-10.336-2.371-14.669,2.04-14.42,12.87C688.932,539.626,688.576,561.685,688.576,583.735z M664.242,973.485
		c0.672-0.002,1.344-0.004,2.017-0.006c0-18.609,0.318-37.225-0.07-55.826c-0.643-30.777-2.864-61.562-2.373-92.312
		c0.671-42.086,3.095-84.149,5.135-126.204c0.507-10.445-3.375-14.459-13.878-14.403c-16.075,0.086-32.217-0.299-48.22-1.723
		c-21.969-1.955-24.365,0.129-21.405,22.611c0.386,2.93,0.669,5.898,0.672,8.849c0.087,77.578,5.326,154.831,13.217,231.99
		c4.816,47.095,7.622,94.398,11.153,141.621c0.433,5.787,0.044,11.655,8.161,11.395c8.87-0.284,17.78-0.535,26.576-1.595
		c11.779-1.42,19.27-6.919,19.132-20.43C664.005,1042.801,664.242,1008.142,664.242,973.485z M632.274,665.805
		c0.014,0.374,0.029,0.748,0.043,1.121c6.342,0,12.692,0.195,19.025-0.036c18.144-0.664,21.44-4.728,20.721-23.195
		c-0.652-16.754-0.752-33.533-0.911-50.302c-0.225-23.607-0.539-47.219-0.283-70.823c0.105-9.67-3.388-14.773-13.335-13.4
		c-8.273,1.142-16.372,3.815-24.658,4.531c-18.842,1.628-37.773,2.244-56.61,3.92c-2.333,0.207-6.347,4.535-6.16,6.653
		c3.85,43.736,8.31,87.417,12.363,131.135c0.983,10.605,9.733,11.555,16.375,12.067C609.879,668.327,621.12,666.503,632.274,665.805
		z M841.716,447.588c-31.416,4.959-66.138,9.552-100.457,16.224c-17.612,3.424-34.536,10.46-51.679,16.142
		c-2.14,0.709-3.713,3.126-5.548,4.752c2.267,0.444,4.546,0.838,6.8,1.34c18.518,4.118,37.119,7.901,55.513,12.516
		c11.835,2.969,23.132,8.694,35.075,10.49c22.555,3.391,42.26,11.875,59.347,26.797c1.914,1.672,3.834,3.439,6.03,4.659
		c2.357,1.309,5.044,2.023,7.586,2.997c-0.703-2.353-1.22-4.782-2.143-7.045c-3.832-9.386-8.85-18.456-11.273-28.18
		c-1.33-5.335-0.449-14.47,3.06-17.157c10.809-8.279,23.025-14.99,35.376-20.879c6.703-3.196,14.842-3.289,22.223-5.208
		c2.109-0.548,3.831-2.587,5.731-3.942c-1.84-0.837-3.604-2.084-5.533-2.448C883.187,455.127,864.524,451.759,841.716,447.588z
		 M518.428,489.651c-0.093-1.164-0.185-2.329-0.278-3.493c-14.564,2.246-29.975,2.189-43.529,7.177
		c-38.015,13.99-65.16,43.423-93.782,70.462c-1.032,0.974-1.311,2.746-1.941,4.146c1.596-0.092,3.384,0.257,4.757-0.345
		c10.849-4.752,21.821-9.29,32.345-14.69c8.044-4.128,15.086-6.37,23.354-0.076c8.078,6.15,9.063,13.679,7.231,22.552
		c-1.624,7.869-3.405,15.713-4.723,23.634c-0.268,1.611,1.222,3.514,1.902,5.283c1.381-0.882,3.039-1.513,4.102-2.684
		c17.008-18.74,33.422-38.053,51.02-56.218c22.34-23.058,47.121-42.687,80.078-48.621c2.79-0.502,5.338-2.341,7.999-3.559
		c-2.974-1.189-5.934-3.36-8.926-3.406C558.171,489.504,538.298,489.651,518.428,489.651z M460.09,254.587
		c0.842,5.688,0.504,8.701,1.721,10.822c17.698,30.865,32.906,63.639,54.131,91.881c27.631,36.767,60.068,69.922,90.489,104.587
		c0.965,1.099,2.486,1.711,3.747,2.55c-0.195-1.535,0.015-3.277-0.647-4.574c-8.057-15.786-16.871-31.217-24.28-47.297
		c-26.695-57.934-64.38-107.385-113.017-148.559C469.334,261.544,466.23,259.331,460.09,254.587z M653.673,471.882
		c2.775-3.091,4.089-4.759,5.608-6.213c11.859-11.36,23.903-22.531,35.578-34.077c5.379-5.319,11.46-10.628,14.815-17.176
		c16.454-32.112,39.884-58.852,63.247-85.834c11.032-12.742,20.203-27.102,30.056-40.844c1.041-1.451,0.995-3.682,1.453-5.551
		c-1.163,0.321-2.36,0.553-3.485,0.977c-18.272,6.877-32.498,18.354-44.73,33.92c-16.115,20.507-33.361,40.436-52.24,58.384
		c-25.468,24.214-41.759,52.891-50.213,86.511C653.094,464.635,653.673,467.606,653.673,471.882z"/>
</g>
</svg>
